<svg version="1.1" viewBox="0.0 0.0 960.0 720.0" fill="none" stroke="none" stroke-linecap="square" stroke-miterlimit="10" xmlns:xlink="http://www.w3.org/1999/xlink" xmlns="http://www.w3.org/2000/svg"><clipPath id="p.0"><path d="m0 0l960.0 0l0 720.0l-960.0 0l0 -720.0z" clip-rule="nonzero"/></clipPath><g clip-path="url(#p.0)"><path fill="#000000" fill-opacity="0.0" d="m0 0l960.0 0l0 720.0l-960.0 0z" fill-rule="evenodd"/><path fill="#000000" fill-opacity="0.0" d="m389.27243 251.83607l168.34647 1.102356" fill-rule="evenodd"/><path stroke="#4285f4" stroke-width="4.0" stroke-linejoin="round" stroke-linecap="butt" d="m413.2719 251.99324l120.347534 0.7880554" fill-rule="evenodd"/><path fill="#4285f4" stroke="#4285f4" stroke-width="4.0" stroke-linecap="butt" d="m413.3152 245.38644l-18.195282 6.4879303l18.108765 6.725662z" fill-rule="evenodd"/><path fill="#4285f4" stroke="#4285f4" stroke-width="4.0" stroke-linecap="butt" d="m533.5762 259.3881l18.195251 -6.4879456l-18.108765 -6.725647z" fill-rule="evenodd"/><path fill="#000000" fill-opacity="0.0" d="m389.2726 567.876l168.34647 0" fill-rule="evenodd"/><path stroke="#4285f4" stroke-width="4.0" stroke-linejoin="round" stroke-linecap="butt" d="m413.27258 567.8759l120.3465 0" fill-rule="evenodd"/><path fill="#4285f4" stroke="#4285f4" stroke-width="4.0" stroke-linecap="butt" d="m413.27258 561.26904l-18.152374 6.6068726l18.152374 6.6069336z" fill-rule="evenodd"/><path fill="#4285f4" stroke="#4285f4" stroke-width="4.0" stroke-linecap="butt" d="m533.6191 574.48285l18.152344 -6.6069336l-18.152344 -6.6068726z" fill-rule="evenodd"/><path fill="#000000" fill-opacity="0.0" d="m665.02637 465.57382l0 -110.39371" fill-rule="evenodd"/><path stroke="#4285f4" stroke-width="4.0" stroke-linejoin="round" stroke-linecap="butt" d="m665.0264 441.57382l0 -62.393707" fill-rule="evenodd"/><path fill="#4285f4" stroke="#4285f4" stroke-width="4.0" stroke-linecap="butt" d="m658.4195 441.57382l6.6069336 18.152374l6.6069336 -18.152374z" fill-rule="evenodd"/><path fill="#4285f4" stroke="#4285f4" stroke-width="4.0" stroke-linecap="butt" d="m671.63336 379.1801l-6.6069336 -18.152374l-6.6069336 18.152374z" fill-rule="evenodd"/><path fill="#000000" fill-opacity="0.0" d="m281.88187 465.57382l0 -111.433075" fill-rule="evenodd"/><path stroke="#4285f4" stroke-width="4.0" stroke-linejoin="round" stroke-linecap="butt" d="m281.88187 441.57382l0 -63.433075" fill-rule="evenodd"/><path fill="#4285f4" stroke="#4285f4" stroke-width="4.0" stroke-linecap="butt" d="m275.27493 441.57382l6.6069336 18.152374l6.6069336 -18.152374z" fill-rule="evenodd"/><path fill="#4285f4" stroke="#4285f4" stroke-width="4.0" stroke-linecap="butt" d="m288.4888 378.14075l-6.6069336 -18.152405l-6.6069336 18.152405z" fill-rule="evenodd"/><path fill="#000000" fill-opacity="0.0" d="m394.3398 490.86365l162.67715 -168.0" fill-rule="evenodd"/><path stroke="#4285f4" stroke-width="4.0" stroke-linejoin="round" stroke-linecap="butt" d="m411.03503 473.62213l129.28674 -133.517" fill-rule="evenodd"/><path fill="#4285f4" stroke="#4285f4" stroke-width="4.0" stroke-linecap="butt" d="m406.28864 469.02612l-7.881012 17.636627l17.37381 -8.444611z" fill-rule="evenodd"/><path fill="#4285f4" stroke="#4285f4" stroke-width="4.0" stroke-linecap="butt" d="m545.0681 344.70114l7.8810425 -17.636597l-17.37378 8.44458z" fill-rule="evenodd"/><path fill="#000000" fill-opacity="0.0" d="m551.9406 494.38492l-162.67715 -168.0" fill-rule="evenodd"/><path stroke="#4285f4" stroke-width="4.0" stroke-linejoin="round" stroke-linecap="butt" d="m535.2454 477.1434l-129.28677 -133.517" fill-rule="evenodd"/><path fill="#4285f4" stroke="#4285f4" stroke-width="4.0" stroke-linecap="butt" d="m530.499 481.73944l17.37378 8.44458l-7.8810425 -17.636597z" fill-rule="evenodd"/><path fill="#4285f4" stroke="#4285f4" stroke-width="4.0" stroke-linecap="butt" d="m410.70508 339.0304l-17.37384 -8.44458l7.8810425 17.636597z" fill-rule="evenodd"/><path fill="#ffffff" d="m557.1157 569.97485l0 0c0 -56.645447 44.46515 -102.565674 99.315674 -102.565674l0 0c26.340149 0 51.6015 10.806 70.226746 30.040802c18.625305 19.234772 29.088928 45.322784 29.088928 72.52487l0 0c0 56.645447 -44.46515 102.565674 -99.315674 102.565674l0 0c-54.850525 0 -99.315674 -45.920227 -99.315674 -102.565674z" fill-rule="evenodd"/><path fill="#ffffff" d="m675.2912 513.49023l0 0c0 -27.78125 21.831116 -50.3024 48.76117 -50.3024l0 0c12.932312 0 25.3349 5.2996826 34.47937 14.733215c9.144531 9.433533 14.28186 22.22815 14.28186 35.569183l0 0c0 27.78125 -21.831177 50.30237 -48.76123 50.30237l0 0c-26.930054 0 -48.76117 -22.521118 -48.76117 -50.30237z" fill-rule="evenodd"/><path fill="#3369e8" d="m564.6798 569.93933l0 0c0 -52.197266 40.97339 -94.511566 91.51672 -94.511566l0 0c24.271729 0 47.549377 9.9574585 64.7121 27.681793c17.16272 17.724365 26.804626 41.763733 26.804626 66.82977l0 0c0 52.197266 -40.97345 94.511536 -91.51672 94.511536l0 0c-50.543335 0 -91.51672 -42.31427 -91.51672 -94.511536z" fill-rule="evenodd"/><path fill="#3369e8" d="m681.3245 513.65894l0 0c0 -24.112701 18.938354 -43.659943 42.30005 -43.659943l0 0c11.218628 0 21.977844 4.599884 29.910583 12.78772c7.9328003 8.187836 12.389404 19.292908 12.389404 30.872223l0 0c0 24.112732 -18.938354 43.659973 -42.299988 43.659973l0 0c-23.361694 0 -42.30005 -19.547241 -42.30005 -43.659973z" fill-rule="evenodd"/><path fill="#ffffff" d="m693.95636 513.65814l0 0c0 -16.907104 13.282166 -30.613007 29.666504 -30.613007l0 0c7.868042 0 15.413818 3.2253113 20.977356 8.966339c5.5635376 5.7410583 8.689087 13.527588 8.689087 21.646667l0 0c0 16.907104 -13.2821045 30.612976 -29.666443 30.612976l0 0c-16.384338 0 -29.666504 -13.705872 -29.666504 -30.612976z" fill-rule="evenodd"/><path fill="#3369e8" d="m716.3219 500.00378l22.867432 13.654358l-22.867432 13.654358z" fill-rule="evenodd"/><path fill="#ffffff" d="m606.43036 525.7628l2.5899658 -6.9867554l5.706604 0.6696167l1.0058594 7.4086914z" fill-rule="evenodd"/><path fill="#ffffff" d="m607.5136 559.64954l2.9795532 6.8203735l5.663269 -1.0117798l0.583313 -7.456909z" fill-rule="evenodd"/><path fill="#ffffff" d="m607.33636 559.605l-4.3513794 5.9732056l-5.325989 -2.2786865l1.0393677 -7.390259z" fill-rule="evenodd"/><path fill="#ffffff" d="m615.8177 526.93494l5.8066406 -4.445801l4.508606 3.8097534l-3.0770874 6.7521973z" fill-rule="evenodd"/><path fill="#ffffff" d="m598.87665 555.9315l-6.777405 2.6281738l-3.3587036 -4.9976807l4.7991333 -5.5717163z" fill-rule="evenodd"/><path fill="#ffffff" d="m598.2017 529.9607l-1.5106201 -7.303711l5.1796875 -2.6466064l4.71344 5.6671143z" fill-rule="evenodd"/><path fill="#ffffff" d="m616.87634 557.8549l6.06958 4.083313l4.2976074 -4.092163l-3.4821167 -6.546997z" fill-rule="evenodd"/><path fill="#ffffff" d="m593.6006 547.7175l-7.0704346 -1.5284424l-0.19488525 -6.159729l6.9594727 -1.979126z" fill-rule="evenodd"/><path fill="#ffffff" d="m593.35925 538.2274l-5.15094 -5.269287l3.0169678 -5.2388306l6.921753 2.194397z" fill-rule="evenodd"/><path fill="#ffffff" d="m623.6822 551.2473l7.224121 0.14172363l1.5247192 -5.9435425l-6.3502197 -3.5480957z" fill-rule="evenodd"/><path fill="#ffffff" d="m625.756 542.0289l6.170227 -3.9232178l-1.8131714 -5.8408813l-7.2163696 0.5531006z" fill-rule="evenodd"/><path fill="#ffffff" d="m589.60187 540.52075l0 0c1.2041016 -10.94165 11.031799 -18.77301 21.950806 -17.49176l0 0c5.243469 0.6152954 10.0425415 3.2926636 13.34137 7.443115c3.2988892 4.1505127 4.8272705 9.434082 4.2490845 14.688477l0 0c-1.2041016 10.941711 -11.031799 18.77301 -21.950806 17.49176l0 0c-10.919006 -1.28125 -18.794495 -11.18988 -17.590454 -22.131592z" fill-rule="evenodd"/><path fill="#3369e8" d="m598.3544 541.44165l0 0c0.7015381 -6.374878 6.426697 -10.937683 12.787537 -10.191345l0 0c3.0545654 0.35845947 5.8502197 1.9182739 7.7719727 4.336426c1.9216919 2.4181519 2.8120117 5.49646 2.4751587 8.5578l0 0c-0.7015381 6.374878 -6.426697 10.937683 -12.787537 10.191345l0 0c-6.36084 -0.7463989 -10.948669 -6.519348 -10.247131 -12.894226z" fill-rule="evenodd"/><path fill="#ffffff" d="m648.2672 527.0658l1.4653931 -3.9500122l3.227295 0.37939453l0.567749 4.189148z" fill-rule="evenodd"/><path fill="#ffffff" d="m648.87573 546.22614l1.68396 3.8567505l3.203003 -0.5713501l0.33062744 -4.2161255z" fill-rule="evenodd"/><path fill="#ffffff" d="m648.7755 546.2009l-2.4613647 3.37677l-3.0118408 -1.2892456l0.58880615 -4.178406z" fill-rule="evenodd"/><path fill="#ffffff" d="m653.5757 527.7299l3.2841797 -2.5130005l2.5492554 2.1547852l-1.7409668 3.8173828z" fill-rule="evenodd"/><path fill="#ffffff" d="m643.99194 544.1227l-3.8330078 1.4850464l-1.8987427 -2.8261719l2.7145996 -3.1497192z" fill-rule="evenodd"/><path fill="#ffffff" d="m643.6134 529.43823l-0.85339355 -4.129822l2.9295654 -1.4957886l2.664734 3.204956z" fill-rule="evenodd"/><path fill="#ffffff" d="m654.1706 545.2127l3.4318848 2.3096313l2.4307861 -2.3131714l-1.9683228 -3.7022705z" fill-rule="evenodd"/><path fill="#ffffff" d="m641.0093 539.4776l-3.998169 -0.8652954l-0.109436035 -3.482605l3.935852 -1.1181641z" fill-rule="evenodd"/><path fill="#ffffff" d="m640.87396 534.1117l-2.9121704 -2.9801636l1.706665 -2.9614868l3.9140625 1.2416382z" fill-rule="evenodd"/><path fill="#ffffff" d="m658.02014 541.4776l4.085266 0.08099365l0.86291504 -3.3600464l-3.5906372 -2.0072021z" fill-rule="evenodd"/><path fill="#ffffff" d="m659.194 536.2656l3.489746 -2.2174683l-1.0245972 -3.3026123l-4.0809937 0.3116455z" fill-rule="evenodd"/><path fill="#ffffff" d="m638.7489 535.4079l0 0c0.682251 -6.1864624 6.2407837 -10.613037 12.415344 -9.887085l0 0c2.965149 0.3486328 5.678711 1.8630981 7.543701 4.210327c1.8650513 2.347229 2.7286987 5.334839 2.401123 8.305664l0 0c-0.682251 6.1864624 -6.2407837 10.613098 -12.415405 9.887085l0 0c-6.1745605 -0.72595215 -10.627014 -6.329529 -9.944763 -12.515991z" fill-rule="evenodd"/><path fill="#3369e8" d="m643.6385 535.9296l0 0c0.39746094 -3.60437 3.63562 -6.1834717 7.232605 -5.760559l0 0c1.727356 0.203125 3.3081055 1.0854492 4.3945312 2.453003c1.0864868 1.3674927 1.5895996 3.1081543 1.3986816 4.8390503l0 0c-0.39746094 3.60437 -3.63562 6.1834717 -7.232605 5.760559l0 0c-3.5969849 -0.4229126 -6.190735 -3.687683 -5.793213 -7.292053z" fill-rule="evenodd"/><path fill="#ffffff" d="m657.6829 566.21045l3.6322632 -14.529053l11.509338 0l3.6322632 14.529053z" fill-rule="evenodd"/><path fill="#ffffff" d="m667.2712 633.488l7.4214478 12.898254l11.082947 -3.3469849l-0.4833374 -14.993591z" fill-rule="evenodd"/><path fill="#ffffff" d="m666.90826 633.44055l-7.376465 12.916382l-11.078796 -3.2860107l0.4342041 -14.975464z" fill-rule="evenodd"/><path fill="#ffffff" d="m676.6437 566.3512l10.615295 -10.203735l9.776855 6.510132l-4.6296387 14.189514z" fill-rule="evenodd"/><path fill="#ffffff" d="m649.2473 628.0982l-12.943359 6.8033447l-7.755615 -9.136169l8.324219 -12.244751z" fill-rule="evenodd"/><path fill="#ffffff" d="m642.2084 576.5003l-4.6296387 -14.189453l9.776855 -6.510193l10.615295 10.203735z" fill-rule="evenodd"/><path fill="#ffffff" d="m685.5324 627.72217l12.97168 6.737976l7.6989746 -9.19989l-8.390015 -12.212891z" fill-rule="evenodd"/><path fill="#ffffff" d="m636.9342 612.9628l-14.423096 -1.3963013l-1.737793 -12.222351l13.431885 -5.5751953z" fill-rule="evenodd"/><path fill="#ffffff" d="m634.37256 594.107l-11.42688 -9.27655l4.879822 -11.185242l14.263672 2.774292z" fill-rule="evenodd"/><path fill="#ffffff" d="m697.6438 612.9628l14.423096 -1.3963013l1.737854 -12.222351l-13.431885 -5.5751953z" fill-rule="evenodd"/><path fill="#ffffff" d="m699.75446 594.107l11.42688 -9.27655l-4.879822 -11.185242l-14.263672 2.774292z" fill-rule="evenodd"/><path fill="#ffffff" d="m627.3891 599.5559l0 0c0 -22.086548 17.864014 -39.991272 39.90033 -39.991272l0 0c10.582275 0 20.73108 4.213379 28.213806 11.713196c7.482788 7.499817 11.686584 17.671753 11.686584 28.278076l0 0c0 22.086548 -17.864014 39.991272 -39.90039 39.991272l0 0c-22.036316 0 -39.90033 -17.904724 -39.90033 -39.991272z" fill-rule="evenodd"/><path fill="#3369e8" d="m643.2085 599.55804l0 0c0 -12.868164 10.406616 -23.299866 23.243835 -23.299866l0 0c6.164612 0 12.076782 2.454773 16.435852 6.824341c4.35907 4.369629 6.8079834 10.2960205 6.8079834 16.475525l0 0c0 12.868164 -10.406616 23.299927 -23.243835 23.299927l0 0c-12.837219 0 -23.243835 -10.431763 -23.243835 -23.299927z" fill-rule="evenodd"/><path fill="#ffffff" d="m173.96945 569.97485l0 0c0 -56.645447 44.465134 -102.565674 99.31564 -102.565674l0 0c26.340149 0 51.60147 10.806 70.226776 30.040802c18.625305 19.234772 29.088867 45.322784 29.088867 72.52487l0 0c0 56.645447 -44.46512 102.565674 -99.31564 102.565674l0 0c-54.85051 0 -99.31564 -45.920227 -99.31564 -102.565674z" fill-rule="evenodd"/><path fill="#ffffff" d="m292.1449 513.49023l0 0c0 -27.78125 21.831146 -50.3024 48.7612 -50.3024l0 0c12.9322815 0 25.33487 5.2996826 34.47937 14.733215c9.144501 9.433533 14.281799 22.22815 14.281799 35.569183l0 0c0 27.78125 -21.831116 50.30237 -48.76117 50.30237l0 0c-26.930054 0 -48.7612 -22.521118 -48.7612 -50.30237z" fill-rule="evenodd"/><path fill="#009925" d="m181.5335 569.93933l0 0c0 -52.197266 40.973434 -94.511566 91.51674 -94.511566l0 0c24.271729 0 47.549377 9.9574585 64.7121 27.681793c17.16272 17.724365 26.804626 41.763733 26.804626 66.82977l0 0c0 52.197266 -40.97345 94.511536 -91.51672 94.511536l0 0c-50.543304 0 -91.51674 -42.31427 -91.51674 -94.511536z" fill-rule="evenodd"/><path fill="#009925" d="m298.17822 513.65894l0 0c0 -24.112701 18.938385 -43.659943 42.30005 -43.659943l0 0c11.218658 0 21.977814 4.599884 29.910614 12.78772c7.9328003 8.187836 12.389404 19.292908 12.389404 30.872223l0 0c0 24.112732 -18.938385 43.659973 -42.30002 43.659973l0 0c-23.361664 0 -42.30005 -19.547241 -42.30005 -43.659973z" fill-rule="evenodd"/><path fill="#ffffff" d="m310.81006 513.65814l0 0c0 -16.907104 13.282135 -30.613007 29.666473 -30.613007l0 0c7.868042 0 15.413849 3.2253113 20.977386 8.966339c5.5635376 5.7410583 8.689117 13.527588 8.689117 21.646667l0 0c0 16.907104 -13.282135 30.612976 -29.666504 30.612976l0 0c-16.384338 0 -29.666473 -13.705872 -29.666473 -30.612976z" fill-rule="evenodd"/><path fill="#009925" d="m333.1756 500.00378l22.867401 13.654358l-22.867401 13.654358z" fill-rule="evenodd"/><path fill="#ffffff" d="m223.28404 525.7628l2.5900116 -6.9867554l5.706558 0.6696167l1.0058746 7.4086914z" fill-rule="evenodd"/><path fill="#ffffff" d="m224.36732 559.64954l2.979538 6.8203735l5.6632996 -1.0117798l0.5832672 -7.456909z" fill-rule="evenodd"/><path fill="#ffffff" d="m224.19006 559.605l-4.3513947 5.9732056l-5.3259735 -2.2786865l1.0393372 -7.390259z" fill-rule="evenodd"/><path fill="#ffffff" d="m232.6714 526.93494l5.80661 -4.445801l4.508621 3.8097534l-3.0770874 6.7521973z" fill-rule="evenodd"/><path fill="#ffffff" d="m215.73033 555.9315l-6.77742 2.6281738l-3.3587036 -4.9976807l4.7991333 -5.5717163z" fill-rule="evenodd"/><path fill="#ffffff" d="m215.05542 529.9607l-1.5106049 -7.303711l5.1797028 -2.6466064l4.71344 5.6671143z" fill-rule="evenodd"/><path fill="#ffffff" d="m233.73007 557.8549l6.0695343 4.083313l4.2976227 -4.092163l-3.4820862 -6.546997z" fill-rule="evenodd"/><path fill="#ffffff" d="m210.4543 547.7175l-7.070465 -1.5284424l-0.19488525 -6.159729l6.959488 -1.979126z" fill-rule="evenodd"/><path fill="#ffffff" d="m210.21294 538.2274l-5.15094 -5.269287l3.016983 -5.2388306l6.9217834 2.194397z" fill-rule="evenodd"/><path fill="#ffffff" d="m240.5359 551.2473l7.2240906 0.14172363l1.5247498 -5.9435425l-6.350235 -3.5480957z" fill-rule="evenodd"/><path fill="#ffffff" d="m242.60966 542.0289l6.170227 -3.9232178l-1.8131409 -5.8408813l-7.2164 0.5531006z" fill-rule="evenodd"/><path fill="#ffffff" d="m206.45558 540.52075l0 0c1.204071 -10.94165 11.031769 -18.77301 21.95079 -17.49176l0 0c5.2434998 0.6152954 10.042526 3.2926636 13.341385 7.443115c3.2988586 4.1505127 4.827286 9.434082 4.249069 14.688477l0 0c-1.204071 10.941711 -11.031769 18.77301 -21.95079 17.49176l0 0c-10.919006 -1.28125 -18.794525 -11.18988 -17.590454 -22.131592z" fill-rule="evenodd"/><path fill="#009925" d="m215.20808 541.44165l0 0c0.70150757 -6.374878 6.426697 -10.937683 12.787537 -10.191345l0 0c3.0545807 0.35845947 5.850235 1.9182739 7.771927 4.336426c1.9217072 2.4181519 2.8120575 5.49646 2.475174 8.5578l0 0c-0.7015228 6.374878 -6.426697 10.937683 -12.787537 10.191345l0 0c-6.36084 -0.7463989 -10.948624 -6.519348 -10.247101 -12.894226z" fill-rule="evenodd"/><path fill="#ffffff" d="m265.12094 527.0658l1.4653625 -3.9500122l3.227295 0.37939453l0.56777954 4.189148z" fill-rule="evenodd"/><path fill="#ffffff" d="m265.72943 546.22614l1.68396 3.8567505l3.2030334 -0.5713501l0.33059692 -4.2161255z" fill-rule="evenodd"/><path fill="#ffffff" d="m265.62918 546.2009l-2.4613342 3.37677l-3.0118103 -1.2892456l0.58877563 -4.178406z" fill-rule="evenodd"/><path fill="#ffffff" d="m270.42938 527.7299l3.2841492 -2.5130005l2.549286 2.1547852l-1.7409668 3.8173828z" fill-rule="evenodd"/><path fill="#ffffff" d="m260.84564 544.1227l-3.8330078 1.4850464l-1.8987122 -2.8261719l2.7145996 -3.1497192z" fill-rule="evenodd"/><path fill="#ffffff" d="m260.46713 529.43823l-0.8534546 -4.129822l2.929596 -1.4957886l2.6647034 3.204956z" fill-rule="evenodd"/><path fill="#ffffff" d="m271.02432 545.2127l3.4318542 2.3096313l2.4307861 -2.3131714l-1.9683228 -3.7022705z" fill-rule="evenodd"/><path fill="#ffffff" d="m257.863 539.4776l-3.9981842 -0.8652954l-0.109451294 -3.482605l3.935852 -1.1181641z" fill-rule="evenodd"/><path fill="#ffffff" d="m257.72766 534.1117l-2.9121704 -2.9801636l1.706665 -2.9614868l3.9140625 1.2416382z" fill-rule="evenodd"/><path fill="#ffffff" d="m274.87384 541.4776l4.085266 0.08099365l0.8628845 -3.3600464l-3.5906067 -2.0072021z" fill-rule="evenodd"/><path fill="#ffffff" d="m276.04767 536.2656l3.489746 -2.2174683l-1.0245667 -3.3026123l-4.0809937 0.3116455z" fill-rule="evenodd"/><path fill="#ffffff" d="m255.6026 535.4079l0 0c0.68222046 -6.1864624 6.2407837 -10.613037 12.415375 -9.887085l0 0c2.965149 0.3486328 5.6786804 1.8630981 7.543701 4.210327c1.8649902 2.347229 2.7286987 5.334839 2.4010925 8.305664l0 0c-0.682251 6.1864624 -6.240814 10.613098 -12.415405 9.887085l0 0c-6.1745605 -0.72595215 -10.626999 -6.329529 -9.944763 -12.515991z" fill-rule="evenodd"/><path fill="#009925" d="m260.4922 535.9296l0 0c0.39749146 -3.60437 3.6356506 -6.1834717 7.2326355 -5.760559l0 0c1.7273254 0.203125 3.308075 1.0854492 4.3945312 2.453003c1.0864258 1.3674927 1.5895386 3.1081543 1.3986816 4.8390503l0 0c-0.39749146 3.60437 -3.6356506 6.1834717 -7.2326355 5.760559l0 0c-3.5970154 -0.4229126 -6.1907043 -3.687683 -5.793213 -7.292053z" fill-rule="evenodd"/><path fill="#ffffff" d="m274.53665 566.21045l3.6322632 -14.529053l11.509338 0l3.6322632 14.529053z" fill-rule="evenodd"/><path fill="#ffffff" d="m284.1249 633.488l7.4214478 12.898254l11.082916 -3.3469849l-0.4833374 -14.993591z" fill-rule="evenodd"/><path fill="#ffffff" d="m283.76196 633.44055l-7.3764954 12.916382l-11.078735 -3.2860107l0.4342041 -14.975464z" fill-rule="evenodd"/><path fill="#ffffff" d="m293.49738 566.3512l10.615326 -10.203735l9.776825 6.510132l-4.6296387 14.189514z" fill-rule="evenodd"/><path fill="#ffffff" d="m266.10104 628.0982l-12.943405 6.8033447l-7.7555695 -9.136169l8.324219 -12.244751z" fill-rule="evenodd"/><path fill="#ffffff" d="m259.06207 576.5003l-4.6296234 -14.189453l9.77681 -6.510193l10.615326 10.203735z" fill-rule="evenodd"/><path fill="#ffffff" d="m302.3861 627.72217l12.97171 6.737976l7.698944 -9.19989l-8.390015 -12.212891z" fill-rule="evenodd"/><path fill="#ffffff" d="m253.78793 612.9628l-14.423111 -1.3963013l-1.737793 -12.222351l13.4318695 -5.5751953z" fill-rule="evenodd"/><path fill="#ffffff" d="m251.22627 594.107l-11.426895 -9.27655l4.8798065 -11.185242l14.263657 2.774292z" fill-rule="evenodd"/><path fill="#ffffff" d="m314.49753 612.9628l14.423096 -1.3963013l1.737793 -12.222351l-13.431854 -5.5751953z" fill-rule="evenodd"/><path fill="#ffffff" d="m316.60815 594.107l11.42688 -9.27655l-4.879822 -11.185242l-14.263641 2.774292z" fill-rule="evenodd"/><path fill="#ffffff" d="m244.2428 599.5559l0 0c0 -22.086548 17.864014 -39.991272 39.90036 -39.991272l0 0c10.582245 0 20.731049 4.213379 28.213806 11.713196c7.4827576 7.499817 11.686554 17.671753 11.686554 28.278076l0 0c0 22.086548 -17.864014 39.991272 -39.90036 39.991272l0 0c-22.036346 0 -39.90036 -17.904724 -39.90036 -39.991272z" fill-rule="evenodd"/><path fill="#009925" d="m260.06216 599.55804l0 0c0 -12.868164 10.406647 -23.299866 23.243866 -23.299866l0 0c6.1646423 0 12.076813 2.454773 16.435852 6.824341c4.35907 4.369629 6.8079834 10.2960205 6.8079834 16.475525l0 0c0 12.868164 -10.406616 23.299927 -23.243835 23.299927l0 0c-12.837219 0 -23.243866 -10.431763 -23.243866 -23.299927z" fill-rule="evenodd"/><path fill="#ffffff" d="m173.9693 254.47359l0 0c0 -56.645462 44.46512 -102.565674 99.31564 -102.565674l0 0c26.340149 0 51.60147 10.8059845 70.226776 30.040787c18.625275 19.234787 29.088867 45.32277 29.088867 72.52489l0 0c0 56.645462 -44.46512 102.56566 -99.31564 102.56566l0 0c-54.850525 0 -99.31564 -45.920197 -99.31564 -102.56566z" fill-rule="evenodd"/><path fill="#ffffff" d="m292.14474 197.98894l0 0c0 -27.781235 21.831116 -50.302383 48.7612 -50.302383l0 0c12.932251 0 25.33487 5.299698 34.47934 14.733231c9.144501 9.433533 14.28183 22.228134 14.28183 35.569153l0 0c0 27.78125 -21.831116 50.3024 -48.76117 50.3024l0 0c-26.930084 0 -48.7612 -22.521149 -48.7612 -50.3024z" fill-rule="evenodd"/><path fill="#d50f25" d="m181.53333 254.43803l0 0c0 -52.19728 40.973434 -94.511536 91.51672 -94.511536l0 0c24.271759 0 47.549408 9.957428 64.71213 27.681793c17.16269 17.72435 26.804626 41.763733 26.804626 66.82974l0 0c0 52.19728 -40.97345 94.51155 -91.516754 94.51155l0 0c-50.54329 0 -91.51672 -42.31427 -91.51672 -94.51155z" fill-rule="evenodd"/><path fill="#d50f25" d="m298.17807 198.15768l0 0c0 -24.112732 18.938354 -43.659958 42.30002 -43.659958l0 0c11.218658 0 21.977844 4.599869 29.910645 12.787704c7.9328003 8.187836 12.389374 19.292908 12.389374 30.872253l0 0c0 24.112732 -18.938354 43.659958 -42.30002 43.659958l0 0c-23.361664 0 -42.30002 -19.547226 -42.30002 -43.659958z" fill-rule="evenodd"/><path fill="#ffffff" d="m310.8099 198.15686l0 0c0 -16.90709 13.282135 -30.612991 29.666473 -30.612991l0 0c7.868042 0 15.413818 3.2252808 20.977356 8.966339c5.563568 5.741043 8.689117 13.527588 8.689117 21.646652l0 0c0 16.90709 -13.282135 30.612991 -29.666473 30.612991l0 0c-16.384338 0 -29.666473 -13.705902 -29.666473 -30.612991z" fill-rule="evenodd"/><path fill="#d50f25" d="m333.17545 184.5025l22.867401 13.654358l-22.867401 13.654373z" fill-rule="evenodd"/><path fill="#ffffff" d="m223.28387 210.2615l2.5900116 -6.9867096l5.706558 0.6696167l1.0058899 7.408661z" fill-rule="evenodd"/><path fill="#ffffff" d="m224.36716 244.14828l2.979538 6.820343l5.6632996 -1.0118103l0.5832825 -7.4568634z" fill-rule="evenodd"/><path fill="#ffffff" d="m224.1899 244.1037l-4.3513947 5.973221l-5.3259735 -2.2787018l1.0393524 -7.390274z" fill-rule="evenodd"/><path fill="#ffffff" d="m232.67125 211.43367l5.806595 -4.445801l4.508621 3.809723l-3.0770874 6.7522125z" fill-rule="evenodd"/><path fill="#ffffff" d="m215.73016 240.43027l-6.777405 2.628128l-3.3587036 -4.99765l4.7991333 -5.5717316z" fill-rule="evenodd"/><path fill="#ffffff" d="m215.05527 214.45938l-1.5106201 -7.30365l5.1797028 -2.6466522l4.71344 5.6671143z" fill-rule="evenodd"/><path fill="#ffffff" d="m233.7299 242.35365l6.0695343 4.0832825l4.297638 -4.092148l-3.4821014 -6.5470123z" fill-rule="evenodd"/><path fill="#ffffff" d="m210.45413 232.21626l-7.070465 -1.5284271l-0.19488525 -6.159775l6.959488 -1.9791107z" fill-rule="evenodd"/><path fill="#ffffff" d="m210.21278 222.72615l-5.15094 -5.2693024l3.016983 -5.2388l6.921768 2.1943817z" fill-rule="evenodd"/><path fill="#ffffff" d="m240.53574 235.74606l7.224106 0.14169312l1.5247345 -5.9435577l-6.3502197 -3.5480957z" fill-rule="evenodd"/><path fill="#ffffff" d="m242.6095 226.52762l6.170227 -3.9232178l-1.8131409 -5.8408966l-7.2164 0.5530548z" fill-rule="evenodd"/><path fill="#ffffff" d="m206.45541 225.0195l0 0c1.204071 -10.941681 11.031784 -18.77301 21.95079 -17.491776l0 0c5.2434998 0.61528015 10.0425415 3.2926483 13.341385 7.4431305c3.2988586 4.150467 4.827301 9.434067 4.2490845 14.688446l0 0c-1.204071 10.941681 -11.031784 18.77301 -21.95079 17.491776l0 0c-10.919022 -1.28125 -18.79454 -11.189896 -17.59047 -22.131577z" fill-rule="evenodd"/><path fill="#d50f25" d="m215.20792 225.94035l0 0c0.7015228 -6.374893 6.426697 -10.937698 12.787537 -10.191315l0 0c3.0545807 0.35842896 5.850235 1.9182892 7.771942 4.336426c1.9217072 2.4181366 2.8120422 5.49646 2.4751587 8.5578l0 0c-0.7015228 6.374893 -6.426697 10.937698 -12.787537 10.191315l0 0c-6.36084 -0.74638367 -10.948624 -6.519333 -10.247101 -12.894226z" fill-rule="evenodd"/><path fill="#ffffff" d="m265.1208 211.56454l1.465332 -3.9500732l3.2273254 0.37945557l0.56777954 4.189102z" fill-rule="evenodd"/><path fill="#ffffff" d="m265.72928 230.72485l1.68396 3.856781l3.203003 -0.5713501l0.33062744 -4.2161407z" fill-rule="evenodd"/><path fill="#ffffff" d="m265.62903 230.69962l-2.4613342 3.3768005l-3.0118103 -1.2892609l0.58877563 -4.1783905z" fill-rule="evenodd"/><path fill="#ffffff" d="m270.42923 212.2286l3.2841492 -2.51297l2.549286 2.1548004l-1.7409973 3.8173523z" fill-rule="evenodd"/><path fill="#ffffff" d="m260.84546 228.62141l-3.8329773 1.4850159l-1.8987274 -2.8261719l2.7145844 -3.1497192z" fill-rule="evenodd"/><path fill="#ffffff" d="m260.46695 213.93694l-0.8534241 -4.1297913l2.929596 -1.4958038l2.6647034 3.2049866z" fill-rule="evenodd"/><path fill="#ffffff" d="m271.02414 229.71144l3.4318848 2.3095856l2.4307861 -2.3131256l-1.9683228 -3.702301z" fill-rule="evenodd"/><path fill="#ffffff" d="m257.86285 223.97633l-3.9981995 -0.8653259l-0.109451294 -3.4825745l3.9358673 -1.1181946z" fill-rule="evenodd"/><path fill="#ffffff" d="m257.7275 218.61044l-2.9121857 -2.9801788l1.7066498 -2.961502l3.914093 1.2416229z" fill-rule="evenodd"/><path fill="#ffffff" d="m274.8737 225.97635l4.085266 0.08097839l0.8628845 -3.3600922l-3.5906067 -2.007187z" fill-rule="evenodd"/><path fill="#ffffff" d="m276.04752 220.76437l3.489746 -2.2174988l-1.0245667 -3.3025818l-4.081024 0.31158447z" fill-rule="evenodd"/><path fill="#ffffff" d="m255.60243 219.9066l0 0c0.6822357 -6.186447 6.240799 -10.613037 12.41539 -9.88707l0 0c2.9651184 0.34861755 5.6786804 1.8631134 7.543701 4.210327c1.8649902 2.3472137 2.7286987 5.334854 2.401062 8.305695l0 0c-0.68222046 6.186447 -6.2407837 10.613037 -12.415375 9.887085l0 0c-6.174591 -0.7259674 -10.627014 -6.32959 -9.944778 -12.516037z" fill-rule="evenodd"/><path fill="#d50f25" d="m260.492 220.42838l0 0c0.39749146 -3.6043854 3.6356506 -6.1834717 7.2326355 -5.760559l0 0c1.727356 0.20307922 3.3081055 1.0854492 4.394562 2.4529724c1.0864258 1.3675232 1.5895386 3.1081848 1.3986511 4.8390656l0 0c-0.39749146 3.60437 -3.6356506 6.1834717 -7.2326355 5.760559l0 0c-3.5969849 -0.4229126 -6.190674 -3.6876678 -5.793213 -7.292038z" fill-rule="evenodd"/><path fill="#ffffff" d="m274.53647 250.70915l3.6322632 -14.529022l11.509369 0l3.6322632 14.529022z" fill-rule="evenodd"/><path fill="#ffffff" d="m284.12473 317.9867l7.4214478 12.898254l11.082947 -3.3470154l-0.4833374 -14.993561z" fill-rule="evenodd"/><path fill="#ffffff" d="m283.7618 317.9393l-7.3764954 12.916351l-11.078766 -3.2860107l0.4342041 -14.975464z" fill-rule="evenodd"/><path fill="#ffffff" d="m293.49722 250.84993l10.615326 -10.203735l9.776794 6.510147l-4.629608 14.189484z" fill-rule="evenodd"/><path fill="#ffffff" d="m266.1009 312.59695l-12.94342 6.803314l-7.7555695 -9.136169l8.324234 -12.244751z" fill-rule="evenodd"/><path fill="#ffffff" d="m259.06192 260.99902l-4.6296234 -14.189484l9.77681 -6.510132l10.615326 10.203735z" fill-rule="evenodd"/><path fill="#ffffff" d="m302.38593 312.22086l12.97171 6.7380066l7.6989746 -9.19989l-8.390015 -12.212891z" fill-rule="evenodd"/><path fill="#ffffff" d="m253.78777 297.46155l-14.423096 -1.3963318l-1.7378082 -12.22229l13.4318695 -5.5752563z" fill-rule="evenodd"/><path fill="#ffffff" d="m251.2261 278.60574l-11.426895 -9.27655l4.879822 -11.185242l14.263657 2.7742615z" fill-rule="evenodd"/><path fill="#ffffff" d="m314.49738 297.46155l14.423096 -1.3963318l1.737793 -12.22229l-13.431854 -5.5752563z" fill-rule="evenodd"/><path fill="#ffffff" d="m316.60797 278.60574l11.42691 -9.27655l-4.879822 -11.185242l-14.263641 2.7742615z" fill-rule="evenodd"/><path fill="#ffffff" d="m244.24265 284.05463l0 0c0 -22.086578 17.863983 -39.991257 39.90036 -39.991257l0 0c10.582214 0 20.731018 4.2133484 28.213806 11.713165c7.4827576 7.4998016 11.686523 17.671738 11.686523 28.278091l0 0c0 22.086548 -17.863983 39.991272 -39.90033 39.991272l0 0c-22.036377 0 -39.90036 -17.904724 -39.90036 -39.991272z" fill-rule="evenodd"/><path fill="#d50f25" d="m260.062 284.05676l0 0c0 -12.868164 10.406616 -23.299866 23.243835 -23.299866l0 0c6.1646423 0 12.076813 2.4548035 16.435883 6.8243713c4.35907 4.369568 6.807953 10.29599 6.807953 16.475494l0 0c0 12.868195 -10.406616 23.299896 -23.243835 23.299896l0 0c-12.837219 0 -23.243835 -10.431702 -23.243835 -23.299896z" fill-rule="evenodd"/><path fill="#ffffff" d="m557.1159 254.47359l0 0c0 -56.645462 44.46515 -102.565674 99.315674 -102.565674l0 0c26.340149 0 51.60144 10.8059845 70.226746 30.040787c18.625305 19.234787 29.088867 45.32277 29.088867 72.52489l0 0c0 56.645462 -44.465088 102.56566 -99.31561 102.56566l0 0c-54.850525 0 -99.315674 -45.920197 -99.315674 -102.56566z" fill-rule="evenodd"/><path fill="#ffffff" d="m675.2914 197.98894l0 0c0 -27.781235 21.831116 -50.302383 48.76117 -50.302383l0 0c12.932251 0 25.3349 5.299698 34.47937 14.733231c9.14447 9.433533 14.281799 22.228134 14.281799 35.569153l0 0c0 27.78125 -21.831116 50.3024 -48.76117 50.3024l0 0c-26.930054 0 -48.76117 -22.521149 -48.76117 -50.3024z" fill-rule="evenodd"/><path fill="#eeb211" d="m564.67993 254.43803l0 0c0 -52.19728 40.97345 -94.511536 91.51672 -94.511536l0 0c24.27179 0 47.54944 9.957428 64.7121 27.681793c17.16272 17.72435 26.804688 41.763733 26.804688 66.82974l0 0c0 52.19728 -40.97345 94.51155 -91.516785 94.51155l0 0c-50.543274 0 -91.51672 -42.31427 -91.51672 -94.51155z" fill-rule="evenodd"/><path fill="#eeb211" d="m681.3247 198.15768l0 0c0 -24.112732 18.938354 -43.659958 42.299988 -43.659958l0 0c11.218689 0 21.977844 4.599869 29.910645 12.787704c7.9328003 8.187836 12.389404 19.292908 12.389404 30.872253l0 0c0 24.112732 -18.938354 43.659958 -42.30005 43.659958l0 0c-23.361633 0 -42.299988 -19.547226 -42.299988 -43.659958z" fill-rule="evenodd"/><path fill="#ffffff" d="m693.95654 198.15686l0 0c0 -16.90709 13.2821045 -30.612991 29.666443 -30.612991l0 0c7.868042 0 15.413818 3.2252808 20.977356 8.966339c5.5635986 5.741043 8.689148 13.527588 8.689148 21.646652l0 0c0 16.90709 -13.282166 30.612991 -29.666504 30.612991l0 0c-16.384338 0 -29.666443 -13.705902 -29.666443 -30.612991z" fill-rule="evenodd"/><path fill="#eeb211" d="m716.322 184.5025l22.867432 13.654358l-22.867432 13.654373z" fill-rule="evenodd"/><path fill="#ffffff" d="m606.4305 210.2615l2.5900269 -6.9867096l5.706543 0.6696167l1.0059204 7.408661z" fill-rule="evenodd"/><path fill="#ffffff" d="m607.5138 244.14828l2.9795532 6.820343l5.663269 -1.0118103l0.58325195 -7.4568634z" fill-rule="evenodd"/><path fill="#ffffff" d="m607.33655 244.1037l-4.3514404 5.973221l-5.325989 -2.2787018l1.0393677 -7.390274z" fill-rule="evenodd"/><path fill="#ffffff" d="m615.8179 211.43367l5.8065796 -4.445801l4.508667 3.809723l-3.0770874 6.7522125z" fill-rule="evenodd"/><path fill="#ffffff" d="m598.8768 240.43027l-6.777405 2.628128l-3.3587036 -4.99765l4.7991333 -5.5717316z" fill-rule="evenodd"/><path fill="#ffffff" d="m598.2019 214.45938l-1.5106201 -7.30365l5.1796875 -2.6466522l4.71344 5.6671143z" fill-rule="evenodd"/><path fill="#ffffff" d="m616.8765 242.35365l6.069519 4.0832825l4.2976685 -4.092148l-3.4821167 -6.5470123z" fill-rule="evenodd"/><path fill="#ffffff" d="m593.60077 232.21626l-7.0704956 -1.5284271l-0.19488525 -6.159775l6.9594727 -1.9791107z" fill-rule="evenodd"/><path fill="#ffffff" d="m593.3594 222.72615l-5.15094 -5.2693024l3.0170288 -5.2388l6.921753 2.1943817z" fill-rule="evenodd"/><path fill="#ffffff" d="m623.6824 235.74606l7.22406 0.14169312l1.5247803 -5.9435577l-6.3502197 -3.5480957z" fill-rule="evenodd"/><path fill="#ffffff" d="m625.7561 226.52762l6.170227 -3.9232178l-1.8131104 -5.8408966l-7.2164307 0.5530548z" fill-rule="evenodd"/><path fill="#ffffff" d="m589.60205 225.0195l0 0c1.2040405 -10.941681 11.031738 -18.77301 21.950806 -17.491776l0 0c5.243469 0.61528015 10.04248 3.2926483 13.34137 7.4431305c3.2988281 4.150467 4.8272705 9.434067 4.2490845 14.688446l0 0c-1.2041016 10.941681 -11.031799 18.77301 -21.950806 17.491776l0 0c-10.919006 -1.28125 -18.794556 -11.189896 -17.590454 -22.131577z" fill-rule="evenodd"/><path fill="#eeb211" d="m598.35455 225.94035l0 0c0.70147705 -6.374893 6.426697 -10.937698 12.787537 -10.191315l0 0c3.0545654 0.35842896 5.8502197 1.9182892 7.7719116 4.336426c1.9216919 2.4181366 2.8120728 5.49646 2.4751587 8.5578l0 0c-0.70147705 6.374893 -6.426697 10.937698 -12.787537 10.191315l0 0c-6.36084 -0.74638367 -10.948608 -6.519333 -10.24707 -12.894226z" fill-rule="evenodd"/><path fill="#ffffff" d="m648.2674 211.56454l1.465332 -3.9500732l3.227356 0.37945557l0.567749 4.189102z" fill-rule="evenodd"/><path fill="#ffffff" d="m648.87585 230.72485l1.684021 3.856781l3.203003 -0.5713501l0.33062744 -4.2161407z" fill-rule="evenodd"/><path fill="#ffffff" d="m648.77563 230.69962l-2.4613037 3.3768005l-3.0118408 -1.2892609l0.5887451 -4.1783905z" fill-rule="evenodd"/><path fill="#ffffff" d="m653.57587 212.2286l3.2841187 -2.51297l2.5493164 2.1548004l-1.7410278 3.8173523z" fill-rule="evenodd"/><path fill="#ffffff" d="m643.99207 228.62141l-3.8329468 1.4850159l-1.8987427 -2.8261719l2.7145996 -3.1497192z" fill-rule="evenodd"/><path fill="#ffffff" d="m643.6136 213.93694l-0.8534546 -4.1297913l2.9296265 -1.4958038l2.6646729 3.2049866z" fill-rule="evenodd"/><path fill="#ffffff" d="m654.1708 229.71144l3.4318848 2.3095856l2.4307861 -2.3131256l-1.9683228 -3.702301z" fill-rule="evenodd"/><path fill="#ffffff" d="m641.00946 223.97633l-3.998169 -0.8653259l-0.10949707 -3.4825745l3.935852 -1.1181946z" fill-rule="evenodd"/><path fill="#ffffff" d="m640.87415 218.61044l-2.9121704 -2.9801788l1.706604 -2.961502l3.9140625 1.2416229z" fill-rule="evenodd"/><path fill="#ffffff" d="m658.0203 225.97635l4.085266 0.08097839l0.862854 -3.3600922l-3.5905762 -2.007187z" fill-rule="evenodd"/><path fill="#ffffff" d="m659.19415 220.76437l3.489685 -2.2174988l-1.0245361 -3.3025818l-4.0809937 0.31158447z" fill-rule="evenodd"/><path fill="#ffffff" d="m638.749 219.9066l0 0c0.682251 -6.186447 6.2408447 -10.613037 12.415405 -9.88707l0 0c2.965149 0.34861755 5.678711 1.8631134 7.543701 4.210327c1.8649902 2.3472137 2.7286987 5.334854 2.401062 8.305695l0 0c-0.68218994 6.186447 -6.2407837 10.613037 -12.415344 9.887085l0 0c-6.1746216 -0.7259674 -10.627014 -6.32959 -9.944824 -12.516037z" fill-rule="evenodd"/><path fill="#eeb211" d="m643.6386 220.42838l0 0c0.39752197 -3.6043854 3.6356812 -6.1834717 7.232666 -5.760559l0 0c1.727356 0.20307922 3.3081055 1.0854492 4.3945312 2.4529724c1.0864258 1.3675232 1.5895386 3.1081848 1.3986816 4.8390656l0 0c-0.39752197 3.60437 -3.6356812 6.1834717 -7.232666 5.760559l0 0c-3.5969849 -0.4229126 -6.190674 -3.6876678 -5.793213 -7.292038z" fill-rule="evenodd"/><path fill="#ffffff" d="m657.6831 250.70915l3.6322632 -14.529022l11.509338 0l3.6322632 14.529022z" fill-rule="evenodd"/><path fill="#ffffff" d="m667.27136 317.9867l7.4214478 12.898254l11.082947 -3.3470154l-0.4833374 -14.993561z" fill-rule="evenodd"/><path fill="#ffffff" d="m666.90845 317.9393l-7.376526 12.916351l-11.078735 -3.2860107l0.4342041 -14.975464z" fill-rule="evenodd"/><path fill="#ffffff" d="m676.64386 250.84993l10.615295 -10.203735l9.776794 6.510147l-4.6295776 14.189484z" fill-rule="evenodd"/><path fill="#ffffff" d="m649.2475 312.59695l-12.94342 6.803314l-7.755554 -9.136169l8.324219 -12.244751z" fill-rule="evenodd"/><path fill="#ffffff" d="m642.20856 260.99902l-4.6296387 -14.189484l9.776794 -6.510132l10.615356 10.203735z" fill-rule="evenodd"/><path fill="#ffffff" d="m685.53253 312.22086l12.971741 6.7380066l7.6989746 -9.19989l-8.390015 -12.212891z" fill-rule="evenodd"/><path fill="#ffffff" d="m636.9344 297.46155l-14.423096 -1.3963318l-1.737793 -12.22229l13.431824 -5.5752563z" fill-rule="evenodd"/><path fill="#ffffff" d="m634.37274 278.60574l-11.426941 -9.27655l4.879822 -11.185242l14.263672 2.7742615z" fill-rule="evenodd"/><path fill="#ffffff" d="m697.644 297.46155l14.423096 -1.3963318l1.737793 -12.22229l-13.431824 -5.5752563z" fill-rule="evenodd"/><path fill="#ffffff" d="m699.7546 278.60574l11.426941 -9.27655l-4.879822 -11.185242l-14.263672 2.7742615z" fill-rule="evenodd"/><path fill="#ffffff" d="m627.3893 284.05463l0 0c0 -22.086578 17.863953 -39.991257 39.90033 -39.991257l0 0c10.582214 0 20.731018 4.2133484 28.213806 11.713165c7.482788 7.4998016 11.686523 17.671738 11.686523 28.278091l0 0c0 22.086548 -17.863953 39.991272 -39.90033 39.991272l0 0c-22.036377 0 -39.90033 -17.904724 -39.90033 -39.991272z" fill-rule="evenodd"/><path fill="#eeb211" d="m643.2086 284.05676l0 0c0 -12.868164 10.406616 -23.299866 23.243835 -23.299866l0 0c6.164673 0 12.076843 2.4548035 16.435913 6.8243713c4.35907 4.369568 6.8079224 10.29599 6.8079224 16.475494l0 0c0 12.868195 -10.406616 23.299896 -23.243835 23.299896l0 0c-12.837219 0 -23.243835 -10.431702 -23.243835 -23.299896z" fill-rule="evenodd"/></g></svg>